<?xml version="1.0" encoding="iso-8859-1"?>
<!-- Generator: Adobe Illustrator 19.0.0, SVG Export Plug-In . SVG Version: 6.00 Build 0)  -->
<svg version="1.1" id="Layer_1" xmlns="http://www.w3.org/2000/svg" xmlns:xlink="http://www.w3.org/1999/xlink" x="0px" y="0px"
	 viewBox="0 0 512 512" style="enable-background:new 0 0 512 512;" xml:space="preserve">
<g>
	<g>
		<path d="M417.687,342.33l-89.786-16.314c-3.375-0.675-6.877,0.303-9.53,2.502l-47.453,39.552c-8.634,7.18-21.178,7.18-29.812,0
			c-0.303-0.244-0.617-0.489-0.943-0.71l-24.192-16.279c-5.341-3.619-12.567-2.188-16.151,3.153
			c-3.596,5.329-2.188,12.567,3.153,16.151l23.738,15.977c5.318,4.305,11.38,7.11,17.676,8.739v58.717
			c0,6.435,5.201,11.636,11.636,11.636c6.435,0,11.636-5.201,11.636-11.636v-58.729c6.493-1.676,12.73-4.608,18.176-9.135
			l43.287-36.084l84.422,15.337c16.582,3.037,28.637,17.489,28.637,34.362v77.521c0,6.423-5.213,11.636-11.636,11.636H81.454
			c-6.423,0-11.636-5.213-11.636-11.636v-77.521c0-16.873,12.055-31.313,28.66-34.351l89.786-16.314
			c6.33-1.152,10.519-7.203,9.367-13.521c-1.14-6.33-7.215-10.566-13.521-9.367L94.313,342.33
			c-27.671,5.05-47.767,29.114-47.767,57.239v77.521c0,19.247,15.663,34.909,34.909,34.909h349.091
			c19.247,0,34.909-15.663,34.909-34.909v-77.521C465.455,371.444,445.358,347.38,417.687,342.33z"/>
	</g>
</g>
<g>
	<g>
		<circle cx="221.091" cy="151.273" r="11.636"/>
	</g>
</g>
<g>
	<g>
		<circle cx="290.909" cy="151.273" r="11.636"/>
	</g>
</g>
<g>
	<g>
		<path d="M372.364,104.727V93.091C372.364,41.763,330.601,0,279.273,0h-46.545c-51.328,0-93.091,41.763-93.091,93.091v11.636
			c-19.247,0-34.909,15.663-34.909,34.909v23.273c0,19.247,15.663,34.909,34.909,34.909h7.482c0.849,5.667,1.443,9.379,1.513,9.821
			c2.199,19.491,9.996,37.888,22.563,53.213l2.49,3.037c20.143,24.564,50.141,38.656,82.316,38.656
			c17.943,0,35.7-4.515,51.351-13.056c5.632-3.084,7.715-10.147,4.631-15.791c-3.084-5.62-10.135-7.715-15.791-4.631
			c-12.241,6.668-26.135,10.205-40.192,10.205c-25.169,0-48.617-10.985-64.314-30.15l-2.49-3.037
			c-9.705-11.846-15.744-26.042-17.513-41.6c-0.093-0.547-8.774-55.121-8.774-76.486v-11.636V93.091
			c0-38.505,31.313-69.818,69.818-69.818h46.545c38.295,0,69.492,30.999,69.818,69.213c-19.281-2.001-37.039-8.972-50.886-20.108
			c0.047,0.105,0.058,0.151,0.105,0.256c-3.712-3.119-9.041-3.793-13.405-1.152c-24.401,14.732-55.087,25.1-88.751,30.022
			c-6.353,0.919-10.764,6.831-9.833,13.196c0.838,5.783,5.818,9.949,11.497,9.949c0.559,0,1.129-0.035,1.699-0.128
			c33.699-4.911,64.605-15.185,90.391-29.417c16.861,11.671,37.318,18.851,59.183,20.736V128c0,21.364-8.681,75.939-8.855,77.021
			c-0.617,5.492-2.025,10.833-3.793,16.07h-46.604c-2.409-6.761-8.809-11.636-16.384-11.636h-34.909
			c-9.623,0-17.455,7.831-17.455,17.455c0,9.623,7.831,17.455,17.455,17.455H256h17.455h87.273
			c19.247,0,34.909-15.663,34.909-34.909v-20.713c7.087-6.388,11.636-15.558,11.636-25.833v-23.273
			C407.273,120.39,391.61,104.727,372.364,104.727z M139.636,174.545c-6.423,0-11.636-5.213-11.636-11.636v-23.273
			c0-6.423,5.213-11.636,11.636-11.636V174.545z M372.364,209.455c0,6.388-5.178,11.578-11.567,11.625
			c1.094-4.317,2.025-8.634,2.502-12.905c0.093-0.582,0.721-4.48,1.594-10.356h7.471V209.455z M384,162.909
			c0,6.423-5.213,11.636-11.636,11.636V128c6.423,0,11.636,5.213,11.636,11.636V162.909z"/>
	</g>
</g>
<g>
</g>
<g>
</g>
<g>
</g>
<g>
</g>
<g>
</g>
<g>
</g>
<g>
</g>
<g>
</g>
<g>
</g>
<g>
</g>
<g>
</g>
<g>
</g>
<g>
</g>
<g>
</g>
<g>
</g>
</svg>
